PathFileType	4	(X/Y/Z)	pose2sim_0-881.trc
DataRate	CameraRate	NumFrames	NumMarkers	Units	OrigDataRate	OrigDataStartFrame	OrigNumFrames
50	50	8	22	m	50	441	882
Frame#	Time	Hip			RHip			RKnee			RAnkle			RBigToe			RSmallToe			RHeel			LHip			LKnee			LAnkle			LBigToe			LSmallToe			LHeel			Neck			Head			Nose			RShoulder			RElbow			RWrist			LShoulder			LElbow			LWrist			
		X1	Y1	Z1	X2	Y2	Z2	X3	Y3	Z3	X4	Y4	Z4	X5	Y5	Z5	X6	Y6	Z6	X7	Y7	Z7	X8	Y8	Z8	X9	Y9	Z9	X10	Y10	Z10	X11	Y11	Z11	X12	Y12	Z12	X13	Y13	Z13	X14	Y14	Z14	X15	Y15	Z15	X16	Y16	Z16	X17	Y17	Z17	X18	Y18	Z18	X19	Y19	Z19	X20	Y20	Z20	X21	Y21	Z21	X22	Y22	Z22	
441	8.82	0.13813838239913925	0.977722567551689	-0.035636704304314745	0.03393135675176868	0.9671261953960104	-0.02477526272056034	0.015601126738778118	0.5243709329843201	-0.06455314080611514	0.0012972428085150838	0.09518591709538732	-0.07970368908811504	0.009355284891160736	0.03913276028662152	0.07509495846850539	-0.042300132157610186	0.041921395919634424	0.03622575802569104	0.009972115420729798	0.0545667672794644	-0.12083461045602081	0.2415327509271788	0.9627336320907561	-0.052841564858365386	0.24558050731266645	0.5251156583534401	-0.1037918359729205	0.24519405553379758	0.0958284548406757	-0.11553526746327346	0.28606998327932426	0.041628311833733646	0.064259049260855	0.32422653814492586	0.04584278467114159	0.012550955139866626	0.23381840358160338	0.0497986982228604	-0.14933641623384317	0.14649180754770874	1.576872448784049	-0.04732664529733002	0.15057309933024676	1.8239357933492208	-0.006579631604565892	0.15301373541808672	1.6923022387859328	0.09258968582105055	-0.010455136822755375	1.4854744052050033	-0.03534262713219946	-0.08261673290393046	1.270618412354889	0.11960545261306385	-0.0755253490299305	1.495040914504077	0.11585167586000415	0.31067427501427197	1.48287655618018	-0.06351802827113362	0.36781502127724763	1.28415127174398	0.10177469034211073	0.36033811527904047	1.4700853463228514	0.08486901809485681
442	8.84	0.1376834787899322	0.9802509795841382	-0.032262419961105106	0.033656177187690456	0.9697181769618486	-0.025145682098597355	0.015539590560525257	0.5274215285576117	-0.06429028394345858	0.0032936303803686516	0.09564971434532572	-0.08424299885564455	0.011380176542970537	0.04246298623056324	0.06554554196212484	-0.037772320331102005	0.04529570220024989	0.026937499646395087	0.01134568098361632	0.055073005997192205	-0.11979462225817519	0.2411201516199928	0.9652490095255942	-0.05044880110187016	0.2420206240196616	0.5254309287197083	-0.1020968094657142	0.24631173797479988	0.09466961869688897	-0.1144461992374554	0.2819126255772616	0.041605142436720616	0.062388562183423465	0.3217766306709029	0.04266437696777742	0.012303428046346683	0.23471664204485163	0.0503085040294545	-0.14958143752380818	0.14733970153520215	1.5778563879606178	-0.04954586423303351	0.1517039982701915	1.822101397538369	-0.0037332044306172874	0.15638593736289655	1.6915547385193697	0.10259339746584469	-0.012550861745107396	1.4864504712825095	-0.03615112657323252	-0.08237096842535371	1.2809241190132106	0.1331681245682872	-0.002506668682566075	1.493726639537556	0.2608125107393514	0.3099821690977953	1.4824654225862657	-0.06427852889271539	0.36941400164996785	1.2843870878236086	0.10384125219367968	0.33912838637906756	1.4697829972237342	0.1373683949061082
443	8.86	0.13889290567319013	0.9778501421571076	-0.029351729464884967	0.03353951392398143	0.9673866721044799	-0.026140822817101842	0.014042163508425876	0.5277898604912932	-0.06506049052700397	0.003655752636664354	0.09595109782106752	-0.08556508115136245	0.01095383429245185	0.04019870574386475	0.0737382651061689	-0.03990570414105614	0.04445444826655686	0.031644642936327676	0.010761334540641744	0.05393508980727708	-0.12283316956451804	0.24086991628806553	0.9657711601837262	-0.04987526834061019	0.2443722962443944	0.5243725379062565	-0.10082778797073762	0.24397388203746773	0.09939215176350472	-0.1136160297344922	0.2818791379723006	0.03793632365383353	0.06758642411489527	0.32240204519620563	0.04341238187653605	0.012939712103318912	0.2331060908491058	0.05353231139233425	-0.14775022620835151	0.14877891227827644	1.5763926924555878	-0.045943862036651524	0.14833026059649815	1.821617708159319	-0.008248009765936285	0.15509514491245274	1.692310599337827	0.10775738607889877	-0.009325672330153011	1.487960485032898	-0.037061786218045095	-0.08418387425072442	1.2744733934088026	0.13105165326776735	-0.07604641355434605	1.491007183074717	0.11148867132988667	0.3089816407011401	1.4854600721846887	-0.06922510659264072	0.3732523269685624	1.2885844855684148	0.09442401084625533	0.3423550769674205	1.4723165763784214	0.13335769059731278
444	8.88	0.14103368450091214	0.9825385563066791	-0.02259147322030611	0.03637890067210177	0.97318894020301	-0.015369037842680669	0.014293773535204347	0.522510553039759	-0.06092550528872489	0.002200740331665174	0.09356681791443414	-0.08918957370074472	0.0011592719713028636	0.04198910181967564	0.12159764321896976	-0.04390525878294886	0.04140674535526582	0.06225613273259889	0.009844045735262468	0.045716674694584236	-0.13067199401287524	0.23913045777712363	0.9696785760604579	-0.040603110576869716	0.2428382062063074	0.5211226479467788	-0.10009941079587589	0.2450093225448747	0.08923141463310412	-0.10989991949887833	0.28497987299649424	0.03725548323090896	0.0720976462322101	0.3144708881956406	0.03631853693664812	0.021113361476920455	0.23262989074334045	0.0444440969156172	-0.1414115819134822	0.1494501521447812	1.5775038853703975	-0.05639984614260139	0.15186942847348897	1.8227317807474765	-0.004429101752511792	0.15418832775954153	1.6928056061428667	0.08818324751879084	-0.008810972379109421	1.4855839405634284	-0.05580421241622612	-0.08051026520242179	1.2707198983092889	0.11776028065380018	-0.06541546349806839	1.5158710111513738	0.10052866938212181	0.3078253356237466	1.4843253389542197	-0.07355017974428633	0.37928183445673724	1.2998180604929854	0.09267378564424271	0.3548961704198193	1.4894585463067236	0.116231269270967
445	8.9	0.13680266130951294	0.9768521730937599	-0.03246173242523843	0.03268009391879066	0.9650736985847846	-0.018449769601841078	0.013795704861760376	0.5225481484963562	-0.06797293752192278	0.0023064752169055062	0.09665982886506409	-0.08629406457499628	0.009253826372832836	0.040152227541785795	0.07274928012114207	-0.043035300583028145	0.044462936712736774	0.032600226712560874	0.01137534895295551	0.05402291210479406	-0.12133264557790108	0.24001370399964067	0.9620590615212332	-0.049787248324686964	0.24529504150362927	0.5247284102459043	-0.10336781338753916	0.2454240477026299	0.09543297669625805	-0.11213567212314815	0.2814016018799323	0.041529172224446506	0.06760085241927997	0.32143771216022565	0.04272315292036673	0.013288866969602336	0.23244776321404248	0.0527715752214815	-0.15176580679851195	0.15050559567902738	1.5775582678092233	-0.050676637336608814	0.15171291468058595	1.8234301463800915	-0.009228212598783774	0.15393008160911223	1.6912663377308406	0.10908122588533485	-0.012175220093166624	1.490159117505704	-0.0384137474423793	-0.0834012504513123	1.2779840981417967	0.13033478239291055	-0.07309280651233377	1.5002981778717728	0.11598507281612556	0.31014319849411	1.4836672589491922	-0.0704763727056402	0.37038126776572416	1.287725024750075	0.10337649015509359	0.3373248034043636	1.4759048480730907	0.1394305953651462
446	8.92	0.1386368315532171	0.9769757811419196	-0.030209535773825503	0.03303431097235827	0.9676759043757014	-0.025525263284965374	0.013413970800493507	0.5240402151326599	-0.0629947297415215	0.0031420968645453225	0.09532940626867466	-0.08329050080967508	0.008194169631492878	0.039223743195541366	0.0663367912942923	-0.042437786005727486	0.0421677362892285	0.025800404232561663	0.013188965849347143	0.053395958136693414	-0.1254725699182686	0.24062890523358102	0.9620441789991927	-0.05150777458662844	0.24322564743564049	0.5220899871225175	-0.09841820250637567	0.24441208722531726	0.09726290421607775	-0.11073092518020565	0.28215065740421885	0.039983167519318	0.07106905152665405	0.323088381371028	0.04410354302567782	0.017547560362596786	0.2333970751811247	0.051523805143730436	-0.1449394232185832	0.14834552654728142	1.5745737730319818	-0.052309231474065784	0.1510783610349737	1.820585997280334	-0.008496273409631614	0.15529566007983422	1.691248038713163	0.09660765017377965	-0.011393361407615927	1.4885198773051573	-0.03863036728884098	-0.08730823914300674	1.2939009291634909	0.13520191440537643	-0.07201871329799896	1.5011203331480933	0.11630282999679209	0.3059450079031317	1.484761385819118	-0.07660126171916293	0.373475040358335	1.2945332266882743	0.09318950029290338	0.3455139484045132	1.4831151023900122	0.12468440560618266
447	8.94	0.1366828825874255	0.9789224253540632	-0.03126661860097484	0.03436463689475063	0.9670070732181958	-0.022760100572536027	0.01614982584002148	0.5260922646975689	-0.06597104862025624	0.0026419705313288724	0.09566412289983563	-0.08043492355476455	0.008536186060958155	0.041438385407547164	0.07164371352762573	-0.040889823097061385	0.04281883820129375	0.03148949273182695	0.01301300499052675	0.053693793184625284	-0.12232162999425542	0.23840078613409482	0.9655187291469843	-0.05276259146268161	0.24361107365728493	0.5227650853340438	-0.10451328226147664	0.24472906373049846	0.0961588262303835	-0.11129783933770981	0.2815505688655254	0.042259396396460244	0.07571195661231392	0.3206988254641446	0.04348082792386449	0.016976119948214838	0.23472799844381426	0.05022533259045821	-0.15094959194237362	0.14739543340275385	1.5790042223519802	-0.05670723955203825	0.15202560257256056	1.8225222223060222	-0.0028007319001473662	0.15417965039557824	1.6904606326627363	0.11046954638748101	-0.010372836548933298	1.4877697816104376	-0.041770008285912145	-0.0832245180836706	1.2966306754033334	0.14386696576518837	0.005597131423512667	1.5102272270250117	0.2665526380818952	0.3078476868975833	1.485128876953069	-0.07430338587804047	0.37046998177428453	1.2978584682829846	0.09541990349584578	0.33836632423335067	1.4792766427387063	0.14851057971127984
448	8.96	0.14012330677470433	0.9820384783084767	-0.022258358995345236	0.03558053859397698	0.9704522774389894	-0.01646893332383041	0.012655818907223126	0.5216293589468713	-0.05958205238714588	0.0015579246914186459	0.09041988879557881	-0.08828549582244839	0.0004903841949460196	0.04148687448774646	0.12240590868070295	-0.04314043832174907	0.04219429510330159	0.06664625694455774	0.009222641262122818	0.04412082084929845	-0.12817847253718584	0.2391402092171532	0.9671567187009605	-0.04476277275551573	0.24318234295320235	0.5215174798085624	-0.10275101269119429	0.24425146640066742	0.08984206370245301	-0.1047814565018098	0.28539310711512733	0.03711988097038209	0.07537483122290331	0.31599333233197124	0.038389448276120224	0.02502370857805702	0.23057493687937683	0.0451177261556728	-0.1413234726029308	0.14990685802381618	1.5776421714515074	-0.057620137805627934	0.1509278666041711	1.8224181075862969	-0.008914838833713213	0.1552599650000315	1.6910273480682947	0.09565754919294095	-0.010245279715614466	1.4866681312809111	-0.05200901396549622	-0.07896903251627943	1.2841967174695306	0.1336736576847358	-0.06792800348265776	1.5220519108395143	0.09840541332972322	0.3078871317000338	1.4857159109955183	-0.08030583318061008	0.3850702230117554	1.301067310274836	0.09395956830263154	0.3606125280921983	1.497057290160614	0.12490727838130719
